<svg xmlns="http://www.w3.org/2000/svg" width="947" height="947"><g name="SunMoon"><circle r="272.2625" cx="473.5" cy="473.5" fill="none" stroke-width="23.675" opacity="1" stroke="#ffff83" stroke-opacity=".5" fill-opacity="1"/><circle r="260.425" cx="473.5" cy="473.5" fill="#00007c" opacity=".5"/></g><g name="90"><line x1="473.5" y1="94.7" y2="160.99" x2="473.5" stroke="#ffff83" opacity="1" stroke-linecap="round" stroke-width="23.675"/><line x1="473.5" y1="852.3" y2="786.01" x2="473.5" stroke="#ffff83" opacity="1" stroke-linecap="round" stroke-width="23.675"/></g><g name="67.5"><line x1="260.425" y1="142.05" y2="201.2375" x2="307.775" stroke="#ffff83" opacity="1" stroke-linecap="round" stroke-width="23.675"/><line x1="260.425" y1="804.95" y2="745.7625" x2="307.775" stroke="#ffff83" opacity="1" stroke-linecap="round" stroke-width="23.675"/><line x1="686.575" y1="142.05" y2="201.2375" x2="639.225" stroke="#ffff83" opacity="1" stroke-linecap="round" stroke-width="23.675"/><line x1="686.575" y1="804.95" y2="745.7625" x2="639.225" stroke="#ffff83" opacity="1" stroke-linecap="round" stroke-width="23.675"/></g><g name="45"><line x1="135.8945" y1="288.3615" y2="319.6125" x2="195.082" stroke="#ffff83" opacity="1" stroke-linecap="round" stroke-width="23.675"/><line x1="135.8945" y1="658.6385" y2="627.3875" x2="195.082" stroke="#ffff83" opacity="1" stroke-linecap="round" stroke-width="23.675"/><line x1="811.1055" y1="288.3615" y2="319.6125" x2="751.918" stroke="#ffff83" opacity="1" stroke-linecap="round" stroke-width="23.675"/><line x1="811.1055" y1="658.6385" y2="627.3875" x2="751.918" stroke="#ffff83" opacity="1" stroke-linecap="round" stroke-width="23.675"/></g><g name="0"><line x1="80.0215" y1="473.5" y2="473.5" x2="160.99" stroke="#ffff83" opacity="1" stroke-linecap="round" stroke-width="23.675"/><line x1="866.9785" y1="473.5" y2="473.5" x2="786.01" stroke="#ffff83" opacity="1" stroke-linecap="round" stroke-width="23.675"/><line x1="866.9785" y1="473.5" y2="473.5" x2="786.01" stroke="#ffff83" opacity="1" stroke-linecap="round" stroke-width="23.675"/></g><g><circle r="108" cx="821" cy="147" fill="#00007c"/><circle r="31" cx="864.8" cy="100.8" fill="#fff"/><path fill="none" stroke="#888" stroke-width="10.8612" stroke-miterlimit="10" stroke-dasharray="40.8475" d="M890.6 261c33.5 65.8 51 138.6 51 212.5 0 258.4-209.7 468.1-468.1 468.1S5 731.9 5.4 473.5C5.4 215.1 215.1 5.4 473.5 5.4c83.1 0 164.6 22.1 236.2 63.9"/></g></svg>